# xmcd CD database file generated by Grip 2.94
# 
# Track frame offsets:
#       150
#       13262
#       26900
#       40810
#       54595
#       72065
#       89930
#       103545
#       119900
#       140815
#       157722
#       171522
# 
# Disc length: 2720 seconds
# 
# Revision: 3
# Processed by: cddbd v1.4b41PL1 Copyright (c) Steve Scherf et al.
# Submitted via: Grip 2.94
# 
DISCID=b10a9e0c
DTITLE=Anson Funderburgh and The Rockets - Change In My Pocket
DYEAR=1900
DGENRE=
TTITLE0=Change in my Pocket
TTITLE1=Young Fashioned Ways
TTITLE2=Little Girl
TTITLE3=Single Again
TTITLE4=$100 Bill
TTITLE5=Hula Hoop
TTITLE6=Willie Jo
TTITLE7=Ain't That Lonely
TTITLE8=Highway Man
TTITLE9=What Have I Done
TTITLE10=You Can't Be The One 
TTITLE11=Things Have Changed
EXTD=
EXTT0=
EXTT1=
EXTT2=
EXTT3=
EXTT4=
EXTT5=
EXTT6=
EXTT7=
EXTT8=
EXTT9=
EXTT10=
EXTT11=
PLAYORDER=
